<svg width="30" height="30" viewBox="0 0 30 30" fill="none" xmlns="http://www.w3.org/2000/svg">
<path fill-rule="evenodd" clip-rule="evenodd" d="M5 0C2.23858 0 0 2.23858 0 5V25C0 27.7614 2.23858 30 5 30H25C27.7614 30 30 27.7614 30 25V5C30 2.23858 27.7614 0 25 0H5ZM26.0511 7.52248L26.2145 7.32146C26.2621 7.26617 26.3098 7.21165 26.357 7.15778C26.8504 6.59458 27.282 6.10196 26.7683 5.54235L25.688 5.02974C25.688 5.02974 25.343 4.82871 24.7801 5.472L10.9449 20.0667L10.8813 20.137L6.3422 14.659C6.24832 14.5523 6.13609 14.4675 6.01214 14.4096C5.88818 14.3517 5.75502 14.3219 5.62048 14.3219C5.48595 14.3219 5.35278 14.3517 5.22883 14.4096C5.10488 14.4675 4.99264 14.5523 4.89876 14.659L3.16481 16.5487C3.11266 16.6049 3.0712 16.6721 3.04289 16.7463C3.01459 16.8205 3 16.9003 3 16.9809C3 17.0614 3.01459 17.1412 3.04289 17.2155C3.0712 17.2897 3.11266 17.3569 3.16481 17.4131L9.82825 24.0872L10.5636 24.821C10.6068 24.8703 10.6596 24.9081 10.7179 24.9315C10.9455 25.0077 11.1866 25.02 11.4196 24.9673C11.6525 24.9147 11.87 24.7988 12.0524 24.63C12.1356 24.5429 12.2191 24.4561 12.3025 24.3693C12.7199 23.9351 13.1373 23.5009 13.5231 23.0318L13.9861 22.4589L14.7033 21.5744L15.6111 20.4386L16.6914 19.1017L17.8897 17.6443L19.1516 16.0863L20.4226 14.4479L21.6754 12.9L22.9009 11.4325L23.9722 10.0956L24.88 8.96989L25.5881 8.09542L26.0511 7.52248Z" fill="#98DAD9"/>
</svg>
