<svg width="30" height="30" viewBox="0 0 30 30" fill="none" xmlns="http://www.w3.org/2000/svg">
<path fill-rule="evenodd" clip-rule="evenodd" d="M5 0C2.23859 0 0 2.23859 0 5V25C0 27.7614 2.23859 30 5 30H25C27.7614 30 30 27.7614 30 25V5C30 2.23859 27.7614 0 25 0H5ZM5.75812 9.37286L11.3774 14.9385L6.14148 20.1744C5.16516 21.1508 5.13904 22.7589 6.08313 23.7664C7.02728 24.7739 8.58405 24.7991 9.56036 23.8229L14.9107 18.4725L19.8824 23.4972C20.8538 24.4788 22.4106 24.462 23.3599 23.4598C24.3092 22.4575 24.2914 20.8492 23.3201 19.8676L18.4438 14.9394L23.7025 9.68073C24.6788 8.70441 24.705 7.09619 23.7608 6.08875C22.8167 5.08124 21.2599 5.05597 20.2836 6.03229L14.9116 11.4043L9.1601 5.70758C8.17926 4.73608 6.62262 4.76904 5.68317 5.78125C4.74377 6.7934 4.77734 8.40143 5.75812 9.37286Z" fill="#98DAD9"/>
</svg>
