<svg width="30" height="30" viewBox="0 0 30 30" fill="none" xmlns="http://www.w3.org/2000/svg">
<path fill-rule="evenodd" clip-rule="evenodd" d="M5 0C2.23858 0 0 2.23858 0 5V25C0 27.7614 2.23858 30 5 30H25C27.7614 30 30 27.7614 30 25V5C30 2.23858 27.7614 0 25 0H5ZM24.5283 4.02614C25.165 3.93294 25.768 4.08774 26.1772 4.51022C26.5864 4.93271 26.7218 5.54035 26.6082 6.1738C26.4589 7.00691 25.6106 7.19561 24.8764 6.88133C25.0134 7.5547 24.7923 8.28378 24.2256 8.76484L14.4348 17.076C14.014 17.4332 13.3896 17.4077 12.9993 17.0174C12.6022 16.6203 12.5837 15.9823 12.9573 15.5629L21.4993 5.97279C22.0636 5.33929 22.9422 5.16232 23.6812 5.45498C23.538 4.79301 23.7946 4.13354 24.5283 4.02614ZM13.704 16.228L22.2461 6.63792C22.6116 6.22749 23.2472 6.20914 23.6358 6.59778C24.0308 6.99281 24.0044 7.64095 23.5785 8.00248L13.7876 16.3136C13.7638 16.3338 13.7285 16.3324 13.7064 16.3103C13.6839 16.2879 13.6829 16.2518 13.704 16.228ZM22.1764 11.6405V22H8L8 7.82355H18.5293L20.5293 5.82355H8C6.89543 5.82355 6 6.71898 6 7.82355V22C6 23.1046 6.89543 24 8 24H22.1764C23.281 24 24.1764 23.1046 24.1764 22V9.64053L22.1764 11.6405Z" fill="#98DAD9"/>
</svg>
