<svg width="30" height="30" viewBox="0 0 30 30" fill="none" xmlns="http://www.w3.org/2000/svg">
<path fill-rule="evenodd" clip-rule="evenodd" d="M5 0C2.23859 0 0 2.23857 0 5V25C0 27.7614 2.23859 30 5 30H25C27.7614 30 30 27.7614 30 25V5C30 2.23857 27.7614 0 25 0H5ZM11.6039 4.11C10.7116 3.78447 9.68066 4.20593 9.30115 5.05136C8.92163 5.8968 9.3374 6.84605 10.2297 7.17159L12.9529 8.16507H11C8.23859 8.16507 6 10.4037 6 13.1651V21C6 23.7614 8.23859 26 11 26H19.3175C22.0789 26 24.3175 23.7614 24.3175 21V13.1651C24.3175 12.8561 24.2895 12.5537 24.2358 12.2602C25.0607 12.4289 25.9376 12.0111 26.2811 11.246C26.6605 10.4006 26.2448 9.45131 25.3525 9.12578L22.0749 7.93004C22.1157 7.86499 22.1523 7.79672 22.1843 7.72546C22.5638 6.88002 22.1481 5.93077 21.2557 5.60524L17.6951 4.30624C16.8028 3.98071 15.7719 4.40218 15.3923 5.2476C15.3604 5.31888 15.334 5.39088 15.3131 5.4632L11.6039 4.11ZM10.7626 12.1284C10.1556 12.1284 9.66351 12.6205 9.66351 13.2274V20.9376C9.66351 21.5446 10.1556 22.0367 10.7626 22.0367C11.3696 22.0367 11.8616 21.5446 11.8616 20.9376V13.2274C11.8616 12.6205 11.3696 12.1284 10.7626 12.1284ZM14.0597 11.5761C14.0597 10.9691 14.5518 10.477 15.1588 10.477C15.7657 10.477 16.2578 10.9691 16.2578 11.5761V22.589C16.2578 23.196 15.7657 23.6881 15.1588 23.6881C14.5518 23.6881 14.0597 23.196 14.0597 22.589V11.5761ZM19.5549 12.1284C18.9479 12.1284 18.4559 12.6205 18.4559 13.2274V20.9376C18.4559 21.5446 18.9479 22.0367 19.5549 22.0367C20.1619 22.0367 20.654 21.5446 20.654 20.9376V13.2274C20.654 12.6205 20.1619 12.1284 19.5549 12.1284Z" fill="#98DAD9"/>
</svg>
