<svg width="30" height="30" viewBox="0 0 30 30" fill="none" xmlns="http://www.w3.org/2000/svg">
<path fill-rule="evenodd" clip-rule="evenodd" d="M5 0C2.23859 0 0 2.23859 0 5V25C0 27.7614 2.23859 30 5 30H25C27.7614 30 30 27.7614 30 25V5C30 2.23859 27.7614 0 25 0H5ZM26.1772 4.51025C25.768 4.08777 25.165 3.93292 24.5283 4.02612C23.7946 4.13354 23.538 4.79303 23.6812 5.45496C22.9422 5.16229 22.0636 5.33929 21.4993 5.97278L12.9573 15.5629C12.5837 15.9823 12.6022 16.6203 12.9993 17.0175C13.3896 17.4077 14.014 17.4332 14.4348 17.076L24.2256 8.76483C24.7924 8.28375 25.0134 7.55469 24.8764 6.88135C25.6105 7.19562 26.4589 7.0069 26.6082 6.17383C26.7218 5.54034 26.5864 4.93274 26.1772 4.51025ZM22.246 6.63794L13.704 16.228C13.6829 16.2518 13.684 16.2878 13.7064 16.3103C13.7285 16.3324 13.7638 16.3339 13.7877 16.3137L23.5785 8.0025C24.0044 7.64093 24.0308 6.9928 23.6358 6.59778C23.2472 6.20917 22.6116 6.22748 22.246 6.63794ZM27 21.5C27 19.434 25.8609 17.6341 24.1765 16.694V9.6405L22.1765 11.6405V16.0412C21.9548 16.014 21.729 16 21.5 16C18.4625 16 16 18.4625 16 21.5C16 21.5925 16.0023 21.6844 16.0068 21.7758C16.0105 21.8509 16.0157 21.9257 16.0224 22H8V7.82355H18.5294L20.5294 5.82355H8C6.89545 5.82355 6 6.71899 6 7.82355V22C6 23.1046 6.89545 24 8 24H16.5997C17.5101 25.7808 19.3627 27 21.5 27C24.5376 27 27 24.5376 27 21.5ZM21.5 25C23.433 25 25 23.433 25 21.5C25 19.567 23.433 18 21.5 18C19.567 18 18 19.567 18 21.5C18 23.433 19.567 25 21.5 25ZM21 22V23H22V22H23V21H22V20H21V21H20V22H21Z" fill="#FBFBFB"/>
</svg>
