<svg width="313" height="60" viewBox="0 0 313 60" fill="none" xmlns="http://www.w3.org/2000/svg">
<circle cx="91" cy="30" r="25" fill="#5B8291"/>
<path d="M7.872 14.312L2.64 13.736V11.336H15.36L22.128 32.936L23.712 39.032L25.152 32.936L31.872 11.336H44.496V13.736L39.216 14.312L43.056 44.12L47.232 44.648V47H33.408V44.648L37.776 44.168L35.616 22.616L34.608 13.352L32.592 20.264L24.576 45.368H21.456L13.68 22.376L10.848 13.304L9.984 22.616L8.064 44.168L12.816 44.648V47H0.288V44.648L4.368 44.168L7.872 14.312ZM53.5793 58.952C53.0353 58.952 52.4913 58.92 51.9473 58.856C51.4353 58.792 51.0673 58.696 50.8433 58.568V54.392C51.0353 54.52 51.4033 54.616 51.9473 54.68C52.5233 54.744 53.0673 54.776 53.5793 54.776C55.1153 54.776 56.4593 54.232 57.6113 53.144C58.7953 52.088 59.9313 50.04 61.0193 47H58.7153L49.5953 23.24L47.3872 22.616V20.36H58.9553V22.616L55.2593 23.192L59.9633 37.352L62.1713 44.36L64.2353 37.304L68.5073 23.192L65.2913 22.616V20.36H74.9393V22.616L72.5393 23.192C67.8353 37.592 65.0673 45.768 64.2353 47.72C63.1473 50.472 62.1553 52.616 61.2593 54.152C60.3633 55.72 59.3073 56.904 58.0913 57.704C56.8753 58.536 55.3713 58.952 53.5793 58.952ZM81.192 14.312L77.256 13.736V11.336H83.736C84.824 11.336 86.2 11.272 87.864 11.144C89.4 11.016 90.536 10.952 91.272 10.952C95.688 10.952 98.84 11.64 100.728 13.016C102.648 14.392 103.608 16.408 103.608 19.064C103.608 21.336 102.952 23.288 101.64 24.92C100.328 26.552 98.536 27.576 96.264 27.992C99.336 27.928 101.752 28.648 103.512 30.152C105.272 31.656 106.152 33.704 106.152 36.296C106.152 39.528 105 42.168 102.696 44.216C100.424 46.264 96.648 47.288 91.368 47.288C90.216 47.288 89.112 47.24 88.056 47.144C85.56 47.048 84.072 47 83.592 47H77.208V44.648L81.192 44.168V14.312ZM86.28 27.08C86.728 27.112 87.64 27.128 89.016 27.128H91.656C93.896 27.128 95.592 26.504 96.744 25.256C97.896 24.008 98.472 22.232 98.472 19.928C98.472 17.688 97.896 16.056 96.744 15.032C95.592 13.976 93.624 13.448 90.84 13.448C89.688 13.448 88.504 13.512 87.288 13.64L86.28 13.736V27.08ZM86.28 44.312C87.016 44.568 88.68 44.696 91.272 44.696C94.504 44.696 96.84 44.04 98.28 42.728C99.752 41.384 100.488 39.464 100.488 36.968C100.488 34.504 99.848 32.712 98.568 31.592C97.32 30.472 95.288 29.912 92.472 29.912C89.208 29.912 87.144 29.944 86.28 30.008V44.312ZM110.019 33.608C110.019 30.728 110.611 28.232 111.795 26.12C112.979 24.008 114.531 22.408 116.451 21.32C118.403 20.2 120.483 19.64 122.691 19.64C126.723 19.64 129.747 20.92 131.763 23.48C133.811 26.04 134.835 29.4 134.835 33.56C134.835 36.472 134.243 38.984 133.059 41.096C131.875 43.208 130.307 44.808 128.355 45.896C126.435 46.984 124.371 47.528 122.163 47.528C118.131 47.528 115.091 46.248 113.043 43.688C111.027 41.128 110.019 37.768 110.019 33.608ZM122.451 44.792C124.659 44.792 126.355 43.88 127.539 42.056C128.723 40.232 129.315 37.528 129.315 33.944C129.315 30.392 128.771 27.576 127.683 25.496C126.595 23.416 124.851 22.376 122.451 22.376C120.243 22.376 118.531 23.288 117.315 25.112C116.131 26.936 115.539 29.64 115.539 33.224C115.539 36.776 116.099 39.592 117.219 41.672C118.339 43.752 120.083 44.792 122.451 44.792ZM139.223 33.608C139.223 30.728 139.815 28.232 140.999 26.12C142.183 24.008 143.735 22.408 145.655 21.32C147.607 20.2 149.687 19.64 151.895 19.64C155.927 19.64 158.951 20.92 160.967 23.48C163.015 26.04 164.039 29.4 164.039 33.56C164.039 36.472 163.447 38.984 162.263 41.096C161.079 43.208 159.511 44.808 157.559 45.896C155.639 46.984 153.575 47.528 151.367 47.528C147.335 47.528 144.295 46.248 142.247 43.688C140.231 41.128 139.223 37.768 139.223 33.608ZM151.655 44.792C153.863 44.792 155.559 43.88 156.743 42.056C157.927 40.232 158.519 37.528 158.519 33.944C158.519 30.392 157.975 27.576 156.887 25.496C155.799 23.416 154.055 22.376 151.655 22.376C149.447 22.376 147.735 23.288 146.519 25.112C145.335 26.936 144.743 29.64 144.743 33.224C144.743 36.776 145.303 39.592 146.423 41.672C147.543 43.752 149.287 44.792 151.655 44.792ZM170.97 11.192L167.226 10.664V8.6L174.858 7.688H174.906L175.962 8.408V31.88L175.866 34.712L186.954 23.24L183.354 22.568V20.36H194.97V22.568L191.178 23.24L184.122 30.104L193.242 44.264L196.218 44.648V47H184.554V44.648L187.578 44.216L180.81 33.08L175.866 37.976L175.962 40.424V44.216L179.37 44.648V47H167.946V44.648L170.97 44.216V11.192ZM201.671 43.16C201.991 43.64 202.663 44.072 203.687 44.456C204.743 44.84 205.847 45.032 206.999 45.032C208.823 45.032 210.167 44.68 211.031 43.976C211.895 43.272 212.327 42.296 212.327 41.048C212.327 40.184 212.055 39.432 211.511 38.792C210.967 38.152 210.199 37.592 209.207 37.112C208.247 36.6 206.855 35.992 205.031 35.288C202.567 34.36 200.759 33.256 199.607 31.976C198.487 30.664 197.927 28.952 197.927 26.84C197.927 25.432 198.343 24.2 199.175 23.144C200.039 22.088 201.207 21.272 202.679 20.696C204.183 20.088 205.847 19.784 207.671 19.784C209.143 19.784 210.423 19.896 211.511 20.12C212.631 20.344 213.527 20.568 214.199 20.792C214.871 21.016 215.319 21.16 215.543 21.224V27.176H212.615L211.655 23.624C211.463 23.24 210.951 22.92 210.119 22.664C209.287 22.376 208.359 22.232 207.335 22.232C205.895 22.232 204.727 22.552 203.831 23.192C202.967 23.832 202.535 24.696 202.535 25.784C202.535 26.744 202.759 27.544 203.207 28.184C203.687 28.792 204.279 29.288 204.983 29.672C205.687 30.056 206.647 30.504 207.863 31.016L208.823 31.4C210.615 32.104 212.071 32.776 213.191 33.416C214.311 34.056 215.239 34.904 215.975 35.96C216.743 36.984 217.127 38.248 217.127 39.752C217.127 42.12 216.199 44.008 214.343 45.416C212.519 46.824 210.007 47.528 206.807 47.528C205.239 47.528 203.591 47.32 201.863 46.904C200.167 46.456 198.775 46.008 197.687 45.56V39.416H200.807L201.671 43.16ZM224.033 11.192L220.001 10.664V8.6L227.825 7.688H227.921L228.977 8.408V19.544L228.785 23.624C229.809 22.696 231.217 21.816 233.009 20.984C234.801 20.152 236.609 19.736 238.433 19.736C240.449 19.736 242.017 20.12 243.137 20.888C244.257 21.656 245.041 22.84 245.489 24.44C245.937 26.008 246.161 28.136 246.161 30.824V44.216L249.521 44.648V47H238.049V44.648L241.169 44.216V30.776C241.169 28.888 241.041 27.416 240.785 26.36C240.529 25.272 240.049 24.472 239.345 23.96C238.641 23.416 237.585 23.144 236.177 23.144C235.025 23.144 233.793 23.432 232.481 24.008C231.169 24.584 230.017 25.256 229.025 26.024V44.216L232.337 44.648V47H221.153V44.648L224.033 44.264V11.192ZM264.89 47.528C261.018 47.528 258.058 46.264 256.01 43.736C253.994 41.208 252.986 37.832 252.986 33.608C252.986 30.824 253.514 28.376 254.57 26.264C255.626 24.152 257.098 22.52 258.986 21.368C260.906 20.216 263.082 19.64 265.514 19.64C268.49 19.64 270.794 20.472 272.426 22.136C274.09 23.768 274.97 26.12 275.066 29.192C275.066 31.144 274.954 32.632 274.73 33.656H258.218C258.282 36.824 259.018 39.384 260.426 41.336C261.834 43.256 263.834 44.216 266.426 44.216C267.706 44.216 269.034 43.992 270.41 43.544C271.818 43.064 272.906 42.504 273.674 41.864L274.586 43.976C273.658 44.936 272.282 45.768 270.458 46.472C268.634 47.176 266.778 47.528 264.89 47.528ZM269.786 31.112C269.882 30.44 269.93 29.752 269.93 29.048C269.898 26.968 269.45 25.336 268.586 24.152C267.754 22.936 266.426 22.328 264.602 22.328C262.746 22.328 261.258 23 260.138 24.344C259.05 25.688 258.426 27.944 258.266 31.112H269.786ZM282.695 11.192L278.807 10.664V8.6L286.535 7.688H286.631L287.687 8.408V44.264L291.767 44.648V47H278.807V44.648L282.695 44.216V11.192ZM299.016 23.528H294.504V21.32L299.016 20.408V18.152C299.016 16.168 299.528 14.344 300.552 12.68C301.608 11.016 302.968 9.704 304.632 8.744C306.328 7.752 308.12 7.256 310.008 7.256C311.096 7.256 312.04 7.4 312.84 7.688V12.488C312.552 12.232 311.976 11.992 311.112 11.768C310.28 11.512 309.352 11.384 308.328 11.384C306.824 11.384 305.72 11.784 305.016 12.584C304.344 13.352 304.008 14.696 304.008 16.616V20.408H310.632V23.528H304.008V44.264L309.336 44.648V47H294.936V44.648L299.016 44.216V23.528Z" fill="#98DAD9"/>
</svg>
