<svg width="30" height="30" viewBox="0 0 30 30" fill="none" xmlns="http://www.w3.org/2000/svg">
<path fill-rule="evenodd" clip-rule="evenodd" d="M5 0C2.23859 0 0 2.23857 0 5V25C0 27.7614 2.23859 30 5 30H25C27.7614 30 30 27.7614 30 25V5C30 2.23857 27.7614 0 25 0H5ZM21 15C21 18.866 17.866 22 14 22C10.134 22 7 18.866 7 15C7 11.134 10.134 8 14 8C16.4397 8 18.588 9.24812 19.8409 11.1407L18.4 11.3948L23.4972 14.9639L27.0663 9.86665L23.9984 10.4076C22.2585 6.62567 18.4359 4 14 4C7.92487 4 3 8.92487 3 15C3 21.0751 7.92487 26 14 26C19.3405 26 23.7921 22.1942 24.7906 17.1468L20.9809 14.4792C20.9936 14.6512 21 14.8248 21 15Z" fill="#98DAD9"/>
</svg>
