<svg width="30" height="32" viewBox="0 0 30 32" fill="none" xmlns="http://www.w3.org/2000/svg">
<path fill-rule="evenodd" clip-rule="evenodd" d="M25 15C25 20.5228 20.5228 25 15 25C9.47715 25 5 20.5228 5 15C5 9.47715 9.47715 5 15 5C20.5228 5 25 9.47715 25 15ZM30 15C30 23.2843 23.2843 30 15 30C12.4007 30 9.95587 29.3389 7.82441 28.1756L5.23224 30.7678C4.25593 31.7441 2.67302 31.7441 1.69671 30.7678C0.7204 29.7914 0.7204 28.2085 1.69671 27.2322L3.87131 25.0576C1.4653 22.397 0 18.8696 0 15C0 6.71573 6.71573 0 15 0C23.2843 0 30 6.71573 30 15Z" fill="#98DAD9"/>
</svg>
